<svg width="33" height="26" viewBox="0 0 33 26" fill="none" xmlns="http://www.w3.org/2000/svg">
<path d="M32.9605 15.3289C32.9151 14.8187 32.4629 14.4421 31.9518 14.4872C31.4404 14.5325 31.0626 14.9833 31.1081 15.4935C31.2746 17.3596 30.822 18.7292 29.7243 19.6812C29.3234 20.0289 28.8574 20.3006 28.3598 20.5139C28.3646 20.418 28.3673 20.3207 28.3673 20.2216C28.3673 17.7473 26.9856 13.8893 24.9257 12.0826C26.5034 11.3185 27.5724 9.85372 27.5724 8.17026C27.5724 7.65478 27.4672 7.1621 27.2834 6.70148C27.3567 6.38477 27.3973 6.05534 27.3973 5.71743C27.3973 4.41058 26.8177 3.23094 25.8903 2.4446C25.3542 2.89886 24.9365 3.48271 24.6741 4.14714C23.9961 3.86011 23.2377 3.69447 22.4335 3.69447C21.5709 3.69447 20.759 3.88211 20.0452 4.20863C19.7889 3.51955 19.3643 2.91131 18.8136 2.44434C17.8857 3.23067 17.2949 4.39918 17.2949 5.71716C17.2949 6.15526 17.3658 6.57479 17.4869 6.97154C17.3653 7.35318 17.2949 7.75417 17.2949 8.16973C17.2949 9.92024 18.4518 11.4322 20.134 12.1674C18.0267 14.0064 16.5 17.7831 16.5 20.2211C16.5 23.5408 19.1566 25.0554 22.4335 25.0554C24.7567 25.0554 26.7669 24.2932 27.7408 22.667C31.4471 21.7113 33.2995 19.126 32.9605 15.3289Z" fill="#2F3542"/>
<g clip-path="url(#clip0_1234_2338)">
<path d="M19.4281 7.62059L13.0546 1.24624C12.2658 0.459729 11.1973 0.0180664 10.0833 0.0180664C8.96942 0.0180664 7.90094 0.459729 7.11212 1.24624L0.738614 7.62059C0.503694 7.854 0.317442 8.13173 0.190654 8.43766C0.0638672 8.74359 -0.000933045 9.07165 1.01501e-05 9.40281V17.6518C1.01501e-05 18.3204 0.265597 18.9616 0.738345 19.4343C1.21109 19.9071 1.85228 20.1727 2.52084 20.1727H17.6458C18.3144 20.1727 18.9556 19.9071 19.4283 19.4343C19.9011 18.9616 20.1667 18.3204 20.1667 17.6518V9.40281C20.1676 9.07165 20.1028 8.74359 19.976 8.43766C19.8492 8.13173 19.663 7.854 19.4281 7.62059ZM12.6042 18.4921H7.56251V15.1864C7.56251 14.5179 7.8281 13.8767 8.30085 13.4039C8.77359 12.9312 9.41478 12.6656 10.0833 12.6656C10.7519 12.6656 11.3931 12.9312 11.8658 13.4039C12.3386 13.8767 12.6042 14.5179 12.6042 15.1864V18.4921ZM18.4861 17.6518C18.4861 17.8747 18.3976 18.0884 18.24 18.246C18.0824 18.4036 17.8687 18.4921 17.6458 18.4921H14.2847V15.1864C14.2847 14.0722 13.8421 13.0035 13.0542 12.2156C12.2663 11.4277 11.1976 10.9851 10.0833 10.9851C8.96907 10.9851 7.90043 11.4277 7.11251 12.2156C6.3246 13.0035 5.88196 14.0722 5.88196 15.1864V18.4921H2.52084C2.29799 18.4921 2.08426 18.4036 1.92668 18.246C1.7691 18.0884 1.68057 17.8747 1.68057 17.6518V9.40281C1.68135 9.18012 1.76979 8.9667 1.92677 8.80874L8.30028 2.43691C8.77394 1.96546 9.41504 1.70078 10.0833 1.70078C10.7516 1.70078 11.3928 1.96546 11.8664 2.43691L18.2399 8.81126C18.3963 8.9686 18.4847 9.181 18.4861 9.40281V17.6518Z" fill="#2F3542"/>
</g>
<defs>
<clipPath id="clip0_1234_2338">
<rect width="20.1667" height="20.1667" fill="white"/>
</clipPath>
</defs>
</svg>
