<svg width="54" height="41" viewBox="0 0 54 41" fill="none" xmlns="http://www.w3.org/2000/svg">
<path d="M53.9354 25.0839C53.8611 24.249 53.1212 23.6328 52.2848 23.7065C51.448 23.7807 50.8298 24.5184 50.9041 25.3532C51.1767 28.4067 50.4359 30.648 48.6397 32.2058C47.9837 32.7748 47.2212 33.2193 46.407 33.5684C46.4148 33.4114 46.4192 33.2523 46.4192 33.0901C46.4192 29.0412 44.1582 22.7281 40.7874 19.7717C43.3692 18.5214 45.1185 16.1244 45.1185 13.3697C45.1185 12.5262 44.9463 11.72 44.6455 10.9662C44.7655 10.448 44.832 9.90892 44.832 9.35597C44.832 7.21749 43.8835 5.28717 42.3659 4.00043C41.4886 4.74376 40.8053 5.69917 40.3758 6.78641C39.2664 6.31673 38.0252 6.04568 36.7094 6.04568C35.2978 6.04568 33.9694 6.35272 32.8013 6.88702C32.3818 5.75945 31.6871 4.76415 30.7859 4C29.2675 5.28673 28.3007 7.19884 28.3007 9.35554C28.3007 10.0724 28.4167 10.7589 28.615 11.4082C28.4159 12.0327 28.3007 12.6888 28.3007 13.3688C28.3007 16.2333 30.1939 18.7075 32.9465 19.9105C29.4983 22.9198 27 29.0998 27 33.0892C27 38.5215 31.3472 41 36.7094 41C40.5109 41 43.8004 39.7527 45.3941 37.0917C51.4588 35.5278 54.4901 31.2972 53.9354 25.0839Z" fill="#6F73BD"/>
<g clip-path="url(#clip0_69_3453)">
<path d="M21.7497 19.4992C21.3047 19.4992 20.8696 19.3672 20.4996 19.12C20.1296 18.8728 19.8412 18.5214 19.6709 18.1102C19.5006 17.6991 19.4561 17.2467 19.5429 16.8102C19.6297 16.3738 19.844 15.9729 20.1587 15.6582C20.4733 15.3435 20.8743 15.1292 21.3107 15.0424C21.7472 14.9556 22.1996 15.0002 22.6107 15.1705C23.0218 15.3408 23.3732 15.6291 23.6205 15.9992C23.8677 16.3692 23.9997 16.8042 23.9997 17.2492C23.9997 17.8459 23.7626 18.4182 23.3407 18.8402C22.9187 19.2621 22.3464 19.4992 21.7497 19.4992ZM35.8872 27.2152C36.0744 28.2925 36.0237 29.3977 35.7388 30.4534C35.4539 31.5091 34.9416 32.4897 34.2378 33.3266C33.534 34.1634 32.6557 34.8362 31.6645 35.2979C30.6733 35.7596 29.5931 35.9989 28.4997 35.9992H22.4997C22.1018 35.9992 21.7203 35.8412 21.439 35.5598C21.1577 35.2785 20.9997 34.897 20.9997 34.4992V31.1047C20.0204 31.3629 19.0124 31.4955 17.9997 31.4992C16.9864 31.494 15.9781 31.3579 14.9997 31.0942V34.4992C14.9997 34.897 14.8416 35.2785 14.5603 35.5598C14.279 35.8412 13.8975 35.9992 13.4997 35.9992H7.49968C6.40623 35.9989 5.32605 35.7596 4.33484 35.2979C3.34363 34.8362 2.46536 34.1634 1.76155 33.3266C1.05775 32.4897 0.54545 31.5091 0.260537 30.4534C-0.0243764 29.3977 -0.0750068 28.2925 0.112193 27.2152L0.562192 24.6052C0.711829 23.7371 1.11808 22.9338 1.72857 22.2988C2.33905 21.6638 3.12576 21.2262 3.98726 21.0425C4.84876 20.8588 5.74554 20.9374 6.56195 21.2682C7.37836 21.5989 8.07697 22.1667 8.56768 22.8982C10.4637 25.6852 14.1132 28.4992 17.9997 28.4992C22.6947 28.4992 27.3207 24.3307 28.6947 20.4352C28.8049 20.1424 29.0015 19.8899 29.2584 19.7113C29.5152 19.5326 29.8203 19.4362 30.1332 19.4347L30.7812 19.4452C31.0716 19.4488 31.3598 19.3946 31.6291 19.2858C31.8985 19.177 32.1434 19.0157 32.3499 18.8114C32.5563 18.607 32.72 18.3637 32.8316 18.0955C32.9431 17.8273 33.0003 17.5396 32.9997 17.2492C32.9991 16.7231 32.8143 16.2138 32.4772 15.8099C32.1401 15.4059 31.6722 15.1329 31.1547 15.0382C30.8355 14.9803 30.5437 14.8205 30.3231 14.5828C30.1024 14.3451 29.9647 14.0423 29.9307 13.7197C29.6224 10.7726 28.2315 8.04478 26.0274 6.06431C23.8233 4.08385 20.9628 2.99165 17.9997 2.99919C9.63418 2.99919 7.33768 8.44119 5.49269 12.8152C5.15669 13.6057 4.84019 14.3602 4.49969 15.0397C7.51586 14.8802 10.4569 14.0407 13.1028 12.584C15.7487 11.1272 18.0309 9.09104 19.7787 6.62769C19.8931 6.46734 20.038 6.33111 20.2051 6.22677C20.3722 6.12243 20.5582 6.05202 20.7525 6.01957C20.9468 5.98711 21.1456 5.99325 21.3376 6.03762C21.5295 6.082 21.7108 6.16374 21.8712 6.27819C22.0315 6.39263 22.1677 6.53754 22.2721 6.70464C22.3764 6.87174 22.4468 7.05775 22.4793 7.25205C22.5117 7.44636 22.5056 7.64516 22.4612 7.83709C22.4169 8.02903 22.3351 8.21034 22.2207 8.37069C20.2737 11.1309 17.7336 13.4204 14.7867 15.0712C15.2359 15.1815 15.6402 15.4275 15.9445 15.7759C16.2489 16.1242 16.4385 16.5578 16.4875 17.0178C16.5365 17.4777 16.4426 17.9416 16.2186 18.3463C15.9945 18.7509 15.6511 19.0767 15.2353 19.2792C14.8194 19.4817 14.3512 19.5511 13.8945 19.478C13.4377 19.4049 13.0146 19.1928 12.6828 18.8705C12.3509 18.5483 12.1265 18.1316 12.0399 17.6772C11.9534 17.2229 12.009 16.7528 12.1992 16.3312C8.75041 17.7277 5.02139 18.2929 1.31369 17.9812C1.00465 17.9398 0.716196 17.8031 0.488448 17.5901C0.2607 17.3771 0.104978 17.0985 0.04294 16.7929C-0.0190983 16.4874 0.0156307 16.17 0.142297 15.8851C0.268963 15.6002 0.481271 15.3618 0.749692 15.2032C1.65649 14.1743 2.33126 12.9624 2.72819 11.6497C4.68569 7.01019 7.64968 -0.000812481 17.9997 -0.000812481C21.5312 -0.00917869 24.9518 1.23226 27.656 3.50373C30.3601 5.7752 32.1733 8.9302 32.7747 12.4102C33.7292 12.8093 34.5446 13.4815 35.1183 14.3424C35.6921 15.2033 35.9987 16.2146 35.9997 17.2492C35.9971 18.4956 35.5419 19.6988 34.7187 20.6347C34.7292 20.6737 34.7562 20.7052 34.7637 20.7472L35.8872 27.2152ZM11.9997 29.9092C9.62706 28.6377 7.59849 26.8094 6.08819 24.5812C5.95966 24.3869 5.78528 24.2273 5.58044 24.1164C5.37561 24.0054 5.14662 23.9467 4.91369 23.9452H4.88819C4.55978 23.9521 4.24397 24.0728 3.99472 24.2868C3.74548 24.5007 3.57827 24.7946 3.52169 25.1182L3.07169 27.7267C2.95909 28.3729 2.98911 29.0358 3.15964 29.6692C3.33018 30.3025 3.6371 30.8909 4.05892 31.3932C4.48075 31.8955 5.00727 32.2995 5.60162 32.5769C6.19597 32.8543 6.84378 32.9984 7.49968 32.9992H11.9997V29.9092ZM32.9322 27.7267L31.9902 22.3072C31.7049 22.3752 31.4143 22.4184 31.1217 22.4362C29.6083 25.6295 27.1125 28.2546 23.9997 29.9272V32.9992H28.4997C29.1558 32.999 29.804 32.8554 30.3987 32.5784C30.9935 32.3013 31.5205 31.8976 31.9428 31.3954C32.3651 30.8932 32.6725 30.3048 32.8434 29.6713C33.0143 29.0378 33.0446 28.3746 32.9322 27.7282V27.7267Z" fill="#6F73BD"/>
</g>
<defs>
<clipPath id="clip0_69_3453">
<rect width="36" height="36" fill="white"/>
</clipPath>
</defs>
</svg>
