<svg width="54" height="41" viewBox="0 0 54 41" fill="none" xmlns="http://www.w3.org/2000/svg">
<path d="M53.9354 25.0839C53.8611 24.249 53.1212 23.6328 52.2848 23.7065C51.448 23.7807 50.8298 24.5184 50.9041 25.3532C51.1767 28.4067 50.4359 30.648 48.6397 32.2058C47.9837 32.7748 47.2212 33.2193 46.407 33.5684C46.4148 33.4114 46.4192 33.2523 46.4192 33.0901C46.4192 29.0412 44.1582 22.7281 40.7874 19.7717C43.3692 18.5214 45.1185 16.1244 45.1185 13.3697C45.1185 12.5262 44.9463 11.72 44.6455 10.9662C44.7655 10.448 44.832 9.90892 44.832 9.35597C44.832 7.21749 43.8835 5.28717 42.3659 4.00043C41.4886 4.74376 40.8053 5.69917 40.3758 6.78641C39.2664 6.31673 38.0252 6.04568 36.7094 6.04568C35.2978 6.04568 33.9694 6.35272 32.8013 6.88702C32.3818 5.75945 31.6871 4.76415 30.7859 4C29.2675 5.28673 28.3007 7.19884 28.3007 9.35554C28.3007 10.0724 28.4167 10.7589 28.615 11.4082C28.4159 12.0327 28.3007 12.6888 28.3007 13.3688C28.3007 16.2333 30.1939 18.7075 32.9465 19.9105C29.4983 22.9198 27 29.0998 27 33.0892C27 38.5215 31.3472 41 36.7094 41C40.5109 41 43.8004 39.7527 45.3941 37.0917C51.4588 35.5278 54.4901 31.2972 53.9354 25.0839Z" fill="#6F73BD"/>
<g clip-path="url(#clip0_69_3456)">
<path d="M31.7919 12.4698L21.3625 2.03903C20.0717 0.752018 18.3233 0.0292969 16.5005 0.0292969C14.6777 0.0292969 12.9293 0.752018 11.6385 2.03903L1.20913 12.4698C0.824715 12.8517 0.519938 13.3062 0.312468 13.8068C0.104998 14.3074 -0.00103852 14.8443 0.000504891 15.3862V28.8845C0.000504891 29.9786 0.435102 31.0278 1.20869 31.8013C1.98228 32.5749 3.03149 33.0095 4.1255 33.0095H28.8755C29.9695 33.0095 31.0187 32.5749 31.7923 31.8013C32.5659 31.0278 33.0005 29.9786 33.0005 28.8845V15.3862C33.002 14.8443 32.896 14.3074 32.6885 13.8068C32.4811 13.3062 32.1763 12.8517 31.7919 12.4698ZM20.6255 30.2595H12.3755V24.8503C12.3755 23.7563 12.8101 22.7071 13.5837 21.9335C14.3573 21.1599 15.4065 20.7253 16.5005 20.7253C17.5945 20.7253 18.6437 21.1599 19.4173 21.9335C20.1909 22.7071 20.6255 23.7563 20.6255 24.8503V30.2595ZM30.2505 28.8845C30.2505 29.2492 30.1056 29.5989 29.8478 29.8568C29.5899 30.1147 29.2402 30.2595 28.8755 30.2595H23.3755V24.8503C23.3755 23.0269 22.6512 21.2782 21.3619 19.9889C20.0726 18.6996 18.3239 17.9753 16.5005 17.9753C14.6771 17.9753 12.9285 18.6996 11.6391 19.9889C10.3498 21.2782 9.6255 23.0269 9.6255 24.8503V30.2595H4.1255C3.76083 30.2595 3.4111 30.1147 3.15323 29.8568C2.89537 29.5989 2.7505 29.2492 2.7505 28.8845V15.3862C2.75178 15.0218 2.89651 14.6725 3.15338 14.414L13.5828 3.98741C14.3578 3.21594 15.4069 2.78283 16.5005 2.78283C17.5941 2.78283 18.6432 3.21594 19.4183 3.98741L29.8476 14.4182C30.1035 14.6756 30.2481 15.0232 30.2505 15.3862V28.8845Z" fill="#6F73BD"/>
</g>
<defs>
<clipPath id="clip0_69_3456">
<rect width="33" height="33" fill="white"/>
</clipPath>
</defs>
</svg>
