<svg width="54" height="41" viewBox="0 0 54 41" fill="none" xmlns="http://www.w3.org/2000/svg">
<path fill-rule="evenodd" clip-rule="evenodd" d="M27.0003 33.0095H4.12531C3.03129 33.0095 1.98208 32.5749 1.20849 31.8013C0.434904 31.0277 0.000306686 29.9785 0.000306686 28.8845V15.3861C-0.00123672 14.8442 0.1048 14.3074 0.31227 13.8068C0.51974 13.3062 0.824517 12.8517 1.20893 12.4698L11.6383 2.03901C12.9291 0.751998 14.6775 0.0292769 16.5003 0.0292769C18.3231 0.0292769 20.0715 0.751998 21.3623 2.03901L28.3101 8.98773C28.4132 6.98203 29.3544 5.21309 30.7859 4C31.6871 4.76415 32.3818 5.75945 32.8013 6.88702C33.9694 6.35272 35.2979 6.04568 36.7094 6.04568C38.0253 6.04568 39.2664 6.31673 40.3758 6.78641C40.8053 5.69917 41.4886 4.74376 42.3659 4.00043C43.8835 5.28717 44.832 7.21749 44.832 9.35597C44.832 9.90892 44.7655 10.448 44.6455 10.9662C44.9464 11.72 45.1185 12.5262 45.1185 13.3697C45.1185 16.1244 43.3692 18.5214 40.7874 19.7717C44.1582 22.7281 46.4192 29.0412 46.4192 33.0901C46.4192 33.2523 46.4148 33.4114 46.407 33.5684C47.2212 33.2193 47.9837 32.7748 48.6397 32.2058C50.4359 30.648 51.1767 28.4067 50.9041 25.3532C50.8298 24.5184 51.448 23.7807 52.2848 23.7065C53.1212 23.6328 53.8611 24.249 53.9354 25.0839C54.4901 31.2972 51.4588 35.5278 45.3941 37.0917C43.8005 39.7527 40.511 41 36.7094 41C31.3472 41 27 38.5215 27 33.0892C27 33.0627 27.0001 33.0362 27.0003 33.0095ZM27.3324 30.2595H23.3753V24.8503C23.3753 23.0269 22.651 21.2782 21.3617 19.9889C20.0724 18.6996 18.3237 17.9753 16.5003 17.9753C14.6769 17.9753 12.9283 18.6996 11.6389 19.9889C10.3496 21.2782 9.62531 23.0269 9.62531 24.8503V30.2595H4.12531C3.76063 30.2595 3.4109 30.1146 3.15304 29.8568C2.89517 29.5989 2.75031 29.2492 2.75031 28.8845V15.3861C2.75158 15.0217 2.89632 14.6725 3.15318 14.414L13.5826 3.98739C14.3576 3.21592 15.4067 2.78281 16.5003 2.78281C17.5939 2.78281 18.643 3.21592 19.4181 3.98739L28.3196 12.8901C28.3071 13.0483 28.3007 13.2079 28.3007 13.3688C28.3007 15.151 29.0336 16.7822 30.2503 18.0501V23.1561C28.8687 25.3397 27.8324 27.9279 27.3324 30.2595ZM12.3753 24.8503V30.2595H20.6253V24.8503C20.6253 23.7562 20.1907 22.707 19.4171 21.9334C18.6435 21.1599 17.5943 20.7253 16.5003 20.7253C15.4063 20.7253 14.3571 21.1599 13.5835 21.9334C12.8099 22.707 12.3753 23.7562 12.3753 24.8503Z" fill="#6F73BD"/>
</svg>
