<svg width="54" height="41" viewBox="0 0 54 41" fill="none" xmlns="http://www.w3.org/2000/svg">
<path fill-rule="evenodd" clip-rule="evenodd" d="M20.4996 19.1199C20.8696 19.3672 21.3046 19.4991 21.7496 19.4991C22.3464 19.4991 22.9187 19.2621 23.3406 18.8401C23.7626 18.4182 23.9996 17.8459 23.9996 17.2491C23.9996 16.8041 23.8677 16.3691 23.6204 15.9991C23.3732 15.6291 23.0218 15.3407 22.6107 15.1704C22.1995 15.0001 21.7471 14.9555 21.3107 15.0424C20.8742 15.1292 20.4733 15.3435 20.1587 15.6581C19.844 15.9728 19.6297 16.3737 19.5429 16.8102C19.4561 17.2466 19.5006 17.699 19.6709 18.1102C19.8412 18.5213 20.1296 18.8727 20.4996 19.1199ZM29.5306 5.38658C28.9661 4.7085 28.3395 4.07786 27.6559 3.50367C24.9518 1.2322 21.5312 -0.00923569 17.9996 -0.000869475C7.64966 -0.000869475 4.68566 7.01013 2.72816 11.6496C2.33124 12.9624 1.65646 14.1743 0.749666 15.2031C0.481244 15.3618 0.268937 15.6002 0.142271 15.8851C0.0156042 16.17 -0.0191248 16.4873 0.0429135 16.7929C0.104952 17.0984 0.260673 17.3771 0.488421 17.59C0.71617 17.803 1.00462 17.9397 1.31366 17.9811C5.02136 18.2929 8.75038 17.7276 12.1992 16.3311C12.009 16.7528 11.9534 17.2228 12.0399 17.6772C12.1264 18.1316 12.3509 18.5482 12.6828 18.8705C13.0146 19.1927 13.4377 19.4048 13.8945 19.4779C14.3512 19.5511 14.8194 19.4816 15.2352 19.2791C15.6511 19.0766 15.9944 18.7509 16.2185 18.3462C16.4426 17.9416 16.5365 17.4777 16.4875 17.0177C16.4385 16.5578 16.2489 16.1241 15.9445 15.7758C15.6402 15.4275 15.2359 15.1814 14.7866 15.0711C17.7336 13.4203 20.2737 11.1309 22.2206 8.37063C22.3351 8.21029 22.4168 8.02897 22.4612 7.83704C22.5056 7.6451 22.5117 7.4463 22.4793 7.252C22.4468 7.05769 22.3764 6.87168 22.2721 6.70458C22.1677 6.53749 22.0315 6.39258 21.8711 6.27813C21.7108 6.16368 21.5295 6.08194 21.3375 6.03756C21.1456 5.99319 20.9468 5.98706 20.7525 6.01951C20.5582 6.05196 20.3722 6.12237 20.2051 6.22671C20.038 6.33105 19.8931 6.46729 19.7786 6.62763C18.0309 9.09098 15.7487 11.1272 13.1028 12.5839C10.4569 14.0406 7.51584 14.8801 4.49966 15.0396C4.81629 14.4078 5.11216 13.7111 5.42225 12.9809C5.44564 12.9258 5.4691 12.8706 5.49266 12.8151C7.33766 8.44113 9.63416 2.99913 17.9996 2.99913C20.9628 2.99159 23.8233 4.08379 26.0274 6.06425C26.9352 6.87995 27.705 7.82243 28.3181 8.85479C28.3065 9.02009 28.3006 9.18707 28.3006 9.35553C28.3006 10.0724 28.4167 10.7589 28.6149 11.4081C28.4158 12.0327 28.3006 12.6888 28.3006 13.3688C28.3006 15.7816 29.6438 17.9175 31.7124 19.25C31.6849 19.2625 31.6572 19.2744 31.6291 19.2857C31.3598 19.3945 31.0716 19.4487 30.7811 19.4451L30.1331 19.4346C29.8203 19.4361 29.5152 19.5326 29.2583 19.7112C29.0015 19.8899 28.8049 20.1423 28.6946 20.4351C27.3206 24.3306 22.6946 28.4991 17.9996 28.4991C14.1131 28.4991 10.4637 25.6851 8.56766 22.8981C8.07694 22.1666 7.37834 21.5989 6.56193 21.2681C5.74551 20.9373 4.84874 20.8588 3.98724 21.0424C3.12574 21.2261 2.33902 21.6637 1.72854 22.2987C1.11806 22.9337 0.711803 23.7371 0.562166 24.6051L0.112166 27.2151C-0.0750333 28.2924 -0.024403 29.3977 0.26051 30.4533C0.545423 31.509 1.05773 32.4897 1.76153 33.3265C2.46533 34.1633 3.3436 34.8362 4.33482 35.2978C5.32603 35.7595 6.4062 35.9989 7.49966 35.9991H13.4997C13.8975 35.9991 14.279 35.8411 14.5603 35.5598C14.8416 35.2785 14.9996 34.897 14.9996 34.4991V31.0941C15.978 31.3578 16.9864 31.4939 17.9996 31.4991C19.0123 31.4954 20.0204 31.3628 20.9996 31.1046V34.4991C20.9996 34.897 21.1577 35.2785 21.439 35.5598C21.7203 35.8411 22.1018 35.9991 22.4996 35.9991H27.4954C28.7803 39.4141 32.42 41 36.7093 41C40.5109 41 43.8004 39.7527 45.3941 37.0917C51.4588 35.5278 54.49 31.2972 53.9353 25.0839C53.861 24.249 53.1211 23.6328 52.2847 23.7065C51.4479 23.7807 50.8297 24.5184 50.9041 25.3532C51.1766 28.4067 50.4359 30.648 48.6396 32.2058C47.9837 32.7748 47.2212 33.2193 46.4069 33.5684C46.4148 33.4114 46.4191 33.2523 46.4191 33.0901C46.4191 29.0412 44.1582 22.7281 40.7874 19.7717C43.3691 18.5214 45.1184 16.1244 45.1184 13.3697C45.1184 12.5262 44.9463 11.72 44.6455 10.9662C44.7655 10.448 44.832 9.90891 44.832 9.35597C44.832 7.21748 43.8834 5.28716 42.3658 4.00043C41.4886 4.74376 40.8052 5.69916 40.3757 6.7864C39.2663 6.31672 38.0252 6.04567 36.7093 6.04567C35.2978 6.04567 33.9693 6.35272 32.8012 6.88702C32.3817 5.75944 31.687 4.76414 30.7859 4C30.3087 4.40437 29.886 4.8705 29.5306 5.38658ZM28.6396 26.2257C27.6242 28.5811 27.0185 31.0442 27.0004 32.9991H23.9996V29.9271C25.7677 28.9771 27.3367 27.7199 28.6396 26.2257ZM6.08816 24.5811C7.59847 26.8093 9.62703 28.6377 11.9997 29.9091V32.9991H7.49966C6.84375 32.9984 6.19594 32.8542 5.60159 32.5768C5.00724 32.2994 4.48072 31.8954 4.0589 31.3932C3.63708 30.8909 3.33015 30.3025 3.15962 29.6691C2.98908 29.0358 2.95907 28.3728 3.07166 27.7266L3.52166 25.1181C3.57825 24.7946 3.74545 24.5007 3.9947 24.2867C4.24394 24.0728 4.55975 23.952 4.88816 23.9451H4.91366C5.14659 23.9466 5.37558 24.0054 5.58042 24.1163C5.78525 24.2272 5.95963 24.3869 6.08816 24.5811Z" fill="#6F73BD"/>
</svg>
